# xmcd
#
# Track frame offsets: 
#        150
#        20063
#        38412
#        57501
#        86120
#        132471
#
# Disc length: 1990 seconds
#
# Revision: 2
# Processed by: cddbd v1.5.2PL0 Copyright (c) Steve Scherf et al.
# Submitted via: ExactAudioCopy v0.99pb5
#
DISCID=4e07c406
DTITLE=Matthew E. White - Outer Face
DYEAR=2013
DGENRE=Folk/Rock
TTITLE0=Eyes Like The Rest
TTITLE1=Signature Move
TTITLE2=Human Style
TTITLE3=In The Valley
TTITLE4=Hot Hot Hot
TTITLE5=Data Track
EXTD=
EXTT0=
EXTT1=
EXTT2=
EXTT3=
EXTT4=
EXTT5=
PLAYORDER=
